G04 (created by PCBNEW-RS274X (2012-apr-16-27)-stable) date Thu 19 Jun 2014 09:24:34 AM PDT*
G01*
G70*
G90*
%MOIN*%
G04 Gerber Fmt 3.4, Leading zero omitted, Abs format*
%FSLAX34Y34*%
G04 APERTURE LIST*
%ADD10C,0.006000*%
%ADD11C,0.015000*%
%ADD12R,0.075000X0.075000*%
%ADD13C,0.075000*%
%ADD14C,0.067200*%
%ADD15R,0.025500X0.043200*%
%ADD16R,0.043200X0.025500*%
G04 APERTURE END LIST*
G54D10*
G54D11*
X25787Y-05709D02*
X05118Y-05709D01*
X25787Y-15748D02*
X25787Y-05709D01*
X05118Y-15748D02*
X25787Y-15748D01*
X05118Y-05709D02*
X05118Y-15748D01*
G54D12*
X06000Y-14500D03*
G54D13*
X06000Y-13500D03*
X06000Y-12500D03*
X06000Y-11500D03*
X06000Y-10500D03*
X06000Y-09500D03*
X06000Y-08500D03*
X06000Y-07500D03*
G54D12*
X09000Y-11500D03*
G54D13*
X09000Y-10500D03*
G54D12*
X21750Y-07500D03*
G54D13*
X21750Y-08500D03*
X21750Y-09500D03*
X21750Y-10500D03*
X21750Y-11500D03*
X21750Y-12500D03*
X21750Y-13500D03*
X21750Y-14500D03*
X24750Y-14500D03*
X24750Y-13500D03*
X24750Y-12500D03*
X24750Y-11500D03*
X24750Y-10500D03*
X24750Y-09500D03*
X24750Y-08500D03*
X24750Y-07500D03*
G54D12*
X11000Y-12500D03*
G54D13*
X12000Y-12500D03*
X13000Y-12500D03*
X14000Y-12500D03*
X15000Y-12500D03*
X16000Y-12500D03*
X17000Y-12500D03*
X18000Y-12500D03*
X18000Y-09500D03*
X17000Y-09500D03*
X16000Y-09500D03*
X15000Y-09500D03*
X14000Y-09500D03*
X13000Y-09500D03*
X12000Y-09500D03*
X11000Y-09500D03*
G54D14*
X15750Y-14750D03*
X16750Y-14750D03*
X17750Y-14750D03*
X18750Y-14750D03*
X19750Y-14750D03*
X15750Y-06750D03*
X16750Y-06750D03*
X17750Y-06750D03*
X18750Y-06750D03*
X19750Y-06750D03*
X07750Y-14750D03*
X08750Y-14750D03*
X09750Y-14750D03*
X10750Y-14750D03*
X11750Y-14750D03*
X07750Y-06750D03*
X08750Y-06750D03*
X09750Y-06750D03*
X10750Y-06750D03*
X11750Y-06750D03*
G54D15*
X12600Y-11200D03*
X12600Y-10531D03*
X12915Y-11200D03*
X13230Y-11200D03*
X13545Y-11200D03*
X13860Y-11200D03*
X14175Y-11200D03*
X14490Y-11200D03*
X14805Y-11200D03*
X12915Y-10531D03*
X13230Y-10531D03*
X13545Y-10531D03*
X13860Y-10531D03*
X14175Y-10531D03*
X14490Y-10531D03*
X14805Y-10531D03*
G54D16*
X23000Y-10100D03*
X23669Y-10100D03*
X23000Y-10415D03*
X23000Y-10730D03*
X23000Y-11045D03*
X23000Y-11360D03*
X23000Y-11675D03*
X23000Y-11990D03*
X23000Y-12305D03*
X23669Y-10415D03*
X23669Y-10730D03*
X23669Y-11045D03*
X23669Y-11360D03*
X23669Y-11675D03*
X23669Y-11990D03*
X23669Y-12305D03*
G54D12*
X23720Y-07980D03*
G54D13*
X23720Y-06980D03*
M02*
