G04 (created by PCBNEW-RS274X (2012-apr-16-27)-stable) date Thu 19 Jun 2014 09:24:34 AM PDT*
G01*
G70*
G90*
%MOIN*%
G04 Gerber Fmt 3.4, Leading zero omitted, Abs format*
%FSLAX34Y34*%
G04 APERTURE LIST*
%ADD10C,0.006000*%
%ADD11C,0.015000*%
%ADD12C,0.012000*%
%ADD13C,0.010700*%
G04 APERTURE END LIST*
G54D10*
G54D11*
X25787Y-05709D02*
X05118Y-05709D01*
X25787Y-15748D02*
X25787Y-05709D01*
X05118Y-15748D02*
X25787Y-15748D01*
X05118Y-05709D02*
X05118Y-15748D01*
X13750Y-15750D02*
X13750Y-05750D01*
X13750Y-05750D02*
X21750Y-05750D01*
X21750Y-05750D02*
X21750Y-15750D01*
X21750Y-15750D02*
X13750Y-15750D01*
X05750Y-15750D02*
X05750Y-05750D01*
X05750Y-05750D02*
X13750Y-05750D01*
X13750Y-05750D02*
X13750Y-15750D01*
X13750Y-15750D02*
X05750Y-15750D01*
G54D12*
X23220Y-08480D02*
X24220Y-08480D01*
X24220Y-08480D02*
X24220Y-06480D01*
X24220Y-06480D02*
X23220Y-06480D01*
X23220Y-06480D02*
X23220Y-08480D01*
X18942Y-12571D02*
X18656Y-12571D01*
X18999Y-12743D02*
X18799Y-12143D01*
X18599Y-12743D01*
X18199Y-12429D02*
X18399Y-12429D01*
X18399Y-12743D02*
X18399Y-12143D01*
X18113Y-12143D01*
X17685Y-12429D02*
X17885Y-12429D01*
X17885Y-12743D02*
X17885Y-12143D01*
X17599Y-12143D01*
X17057Y-12743D02*
X17400Y-12743D01*
X17228Y-12743D02*
X17228Y-12143D01*
X17285Y-12229D01*
X17343Y-12286D01*
X17400Y-12314D01*
X21499Y-06043D02*
X21099Y-06043D01*
X21356Y-06643D01*
X20900Y-06614D02*
X20814Y-06643D01*
X20671Y-06643D01*
X20614Y-06614D01*
X20585Y-06586D01*
X20557Y-06529D01*
X20557Y-06471D01*
X20585Y-06414D01*
X20614Y-06386D01*
X20671Y-06357D01*
X20785Y-06329D01*
X20843Y-06300D01*
X20871Y-06271D01*
X20900Y-06214D01*
X20900Y-06157D01*
X20871Y-06100D01*
X20843Y-06071D01*
X20785Y-06043D01*
X20643Y-06043D01*
X20557Y-06071D01*
X20300Y-06329D02*
X20100Y-06329D01*
X20014Y-06643D02*
X20300Y-06643D01*
X20300Y-06043D01*
X20014Y-06043D01*
X19443Y-06071D02*
X19500Y-06043D01*
X19586Y-06043D01*
X19671Y-06071D01*
X19729Y-06129D01*
X19757Y-06186D01*
X19786Y-06300D01*
X19786Y-06386D01*
X19757Y-06500D01*
X19729Y-06557D01*
X19671Y-06614D01*
X19586Y-06643D01*
X19529Y-06643D01*
X19443Y-06614D01*
X19414Y-06586D01*
X19414Y-06386D01*
X19529Y-06386D01*
X19157Y-06643D02*
X19157Y-06043D01*
X18957Y-06471D01*
X18757Y-06043D01*
X18757Y-06643D01*
X18471Y-06329D02*
X18271Y-06329D01*
X18185Y-06643D02*
X18471Y-06643D01*
X18471Y-06043D01*
X18185Y-06043D01*
X17928Y-06643D02*
X17928Y-06043D01*
X17585Y-06643D01*
X17585Y-06043D01*
X17385Y-06043D02*
X17042Y-06043D01*
X17213Y-06643D02*
X17213Y-06043D01*
X16871Y-06614D02*
X16785Y-06643D01*
X16642Y-06643D01*
X16585Y-06614D01*
X16556Y-06586D01*
X16528Y-06529D01*
X16528Y-06471D01*
X16556Y-06414D01*
X16585Y-06386D01*
X16642Y-06357D01*
X16756Y-06329D01*
X16814Y-06300D01*
X16842Y-06271D01*
X16871Y-06214D01*
X16871Y-06157D01*
X16842Y-06100D01*
X16814Y-06071D01*
X16756Y-06043D01*
X16614Y-06043D01*
X16528Y-06071D01*
X10692Y-11821D02*
X10406Y-11821D01*
X10749Y-11993D02*
X10549Y-11393D01*
X10349Y-11993D01*
X09949Y-11679D02*
X10149Y-11679D01*
X10149Y-11993D02*
X10149Y-11393D01*
X09863Y-11393D01*
X09435Y-11679D02*
X09635Y-11679D01*
X09635Y-11993D02*
X09635Y-11393D01*
X09349Y-11393D01*
X09150Y-11450D02*
X09121Y-11421D01*
X09064Y-11393D01*
X08921Y-11393D01*
X08864Y-11421D01*
X08835Y-11450D01*
X08807Y-11507D01*
X08807Y-11564D01*
X08835Y-11650D01*
X09178Y-11993D01*
X08807Y-11993D01*
X13499Y-06043D02*
X13099Y-06043D01*
X13356Y-06643D01*
X12900Y-06614D02*
X12814Y-06643D01*
X12671Y-06643D01*
X12614Y-06614D01*
X12585Y-06586D01*
X12557Y-06529D01*
X12557Y-06471D01*
X12585Y-06414D01*
X12614Y-06386D01*
X12671Y-06357D01*
X12785Y-06329D01*
X12843Y-06300D01*
X12871Y-06271D01*
X12900Y-06214D01*
X12900Y-06157D01*
X12871Y-06100D01*
X12843Y-06071D01*
X12785Y-06043D01*
X12643Y-06043D01*
X12557Y-06071D01*
X12300Y-06329D02*
X12100Y-06329D01*
X12014Y-06643D02*
X12300Y-06643D01*
X12300Y-06043D01*
X12014Y-06043D01*
X11443Y-06071D02*
X11500Y-06043D01*
X11586Y-06043D01*
X11671Y-06071D01*
X11729Y-06129D01*
X11757Y-06186D01*
X11786Y-06300D01*
X11786Y-06386D01*
X11757Y-06500D01*
X11729Y-06557D01*
X11671Y-06614D01*
X11586Y-06643D01*
X11529Y-06643D01*
X11443Y-06614D01*
X11414Y-06586D01*
X11414Y-06386D01*
X11529Y-06386D01*
X11157Y-06643D02*
X11157Y-06043D01*
X10957Y-06471D01*
X10757Y-06043D01*
X10757Y-06643D01*
X10471Y-06329D02*
X10271Y-06329D01*
X10185Y-06643D02*
X10471Y-06643D01*
X10471Y-06043D01*
X10185Y-06043D01*
X09928Y-06643D02*
X09928Y-06043D01*
X09585Y-06643D01*
X09585Y-06043D01*
X09385Y-06043D02*
X09042Y-06043D01*
X09213Y-06643D02*
X09213Y-06043D01*
X08871Y-06614D02*
X08785Y-06643D01*
X08642Y-06643D01*
X08585Y-06614D01*
X08556Y-06586D01*
X08528Y-06529D01*
X08528Y-06471D01*
X08556Y-06414D01*
X08585Y-06386D01*
X08642Y-06357D01*
X08756Y-06329D01*
X08814Y-06300D01*
X08842Y-06271D01*
X08871Y-06214D01*
X08871Y-06157D01*
X08842Y-06100D01*
X08814Y-06071D01*
X08756Y-06043D01*
X08614Y-06043D01*
X08528Y-06071D01*
X12999Y-12443D02*
X13199Y-12157D01*
X13342Y-12443D02*
X13342Y-11843D01*
X13114Y-11843D01*
X13056Y-11871D01*
X13028Y-11900D01*
X12999Y-11957D01*
X12999Y-12043D01*
X13028Y-12100D01*
X13056Y-12129D01*
X13114Y-12157D01*
X13342Y-12157D01*
X12742Y-12443D02*
X12742Y-11843D01*
X12514Y-11843D01*
X12456Y-11871D01*
X12428Y-11900D01*
X12399Y-11957D01*
X12399Y-12043D01*
X12428Y-12100D01*
X12456Y-12129D01*
X12514Y-12157D01*
X12742Y-12157D01*
X12171Y-11900D02*
X12142Y-11871D01*
X12085Y-11843D01*
X11942Y-11843D01*
X11885Y-11871D01*
X11856Y-11900D01*
X11828Y-11957D01*
X11828Y-12014D01*
X11856Y-12100D01*
X12199Y-12443D01*
X11828Y-12443D01*
X12585Y-11443D02*
X12785Y-11157D01*
X12928Y-11443D02*
X12928Y-10843D01*
X12700Y-10843D01*
X12642Y-10871D01*
X12614Y-10900D01*
X12585Y-10957D01*
X12585Y-11043D01*
X12614Y-11100D01*
X12642Y-11129D01*
X12700Y-11157D01*
X12928Y-11157D01*
X12471Y-11500D02*
X12014Y-11500D01*
X11871Y-11443D02*
X11871Y-10843D01*
X11643Y-10843D01*
X11585Y-10871D01*
X11557Y-10900D01*
X11528Y-10957D01*
X11528Y-11043D01*
X11557Y-11100D01*
X11585Y-11129D01*
X11643Y-11157D01*
X11871Y-11157D01*
X11300Y-11271D02*
X11014Y-11271D01*
X11357Y-11443D02*
X11157Y-10843D01*
X10957Y-11443D01*
X10414Y-11386D02*
X10443Y-11414D01*
X10529Y-11443D01*
X10586Y-11443D01*
X10671Y-11414D01*
X10729Y-11357D01*
X10757Y-11300D01*
X10786Y-11186D01*
X10786Y-11100D01*
X10757Y-10986D01*
X10729Y-10929D01*
X10671Y-10871D01*
X10586Y-10843D01*
X10529Y-10843D01*
X10443Y-10871D01*
X10414Y-10900D01*
X10157Y-11443D02*
X10157Y-10843D01*
X09814Y-11443D02*
X10071Y-11100D01*
X09814Y-10843D02*
X10157Y-11186D01*
X09471Y-11100D02*
X09529Y-11071D01*
X09557Y-11043D01*
X09586Y-10986D01*
X09586Y-10957D01*
X09557Y-10900D01*
X09529Y-10871D01*
X09471Y-10843D01*
X09357Y-10843D01*
X09300Y-10871D01*
X09271Y-10900D01*
X09243Y-10957D01*
X09243Y-10986D01*
X09271Y-11043D01*
X09300Y-11071D01*
X09357Y-11100D01*
X09471Y-11100D01*
X09529Y-11129D01*
X09557Y-11157D01*
X09586Y-11214D01*
X09586Y-11329D01*
X09557Y-11386D01*
X09529Y-11414D01*
X09471Y-11443D01*
X09357Y-11443D01*
X09300Y-11414D01*
X09271Y-11386D01*
X09243Y-11329D01*
X09243Y-11214D01*
X09271Y-11157D01*
X09300Y-11129D01*
X09357Y-11100D01*
X22243Y-09701D02*
X21957Y-09501D01*
X22243Y-09358D02*
X21643Y-09358D01*
X21643Y-09586D01*
X21671Y-09644D01*
X21700Y-09672D01*
X21757Y-09701D01*
X21843Y-09701D01*
X21900Y-09672D01*
X21929Y-09644D01*
X21957Y-09586D01*
X21957Y-09358D01*
X22243Y-09958D02*
X21643Y-09958D01*
X21643Y-10186D01*
X21671Y-10244D01*
X21700Y-10272D01*
X21757Y-10301D01*
X21843Y-10301D01*
X21900Y-10272D01*
X21929Y-10244D01*
X21957Y-10186D01*
X21957Y-09958D01*
X22243Y-10872D02*
X22243Y-10529D01*
X22243Y-10701D02*
X21643Y-10701D01*
X21729Y-10644D01*
X21786Y-10586D01*
X21814Y-10529D01*
X23243Y-07115D02*
X22957Y-06915D01*
X23243Y-06772D02*
X22643Y-06772D01*
X22643Y-07000D01*
X22671Y-07058D01*
X22700Y-07086D01*
X22757Y-07115D01*
X22843Y-07115D01*
X22900Y-07086D01*
X22929Y-07058D01*
X22957Y-07000D01*
X22957Y-06772D01*
X23300Y-07229D02*
X23300Y-07686D01*
X23243Y-07829D02*
X22643Y-07829D01*
X22643Y-08057D01*
X22671Y-08115D01*
X22700Y-08143D01*
X22757Y-08172D01*
X22843Y-08172D01*
X22900Y-08143D01*
X22929Y-08115D01*
X22957Y-08057D01*
X22957Y-07829D01*
X23071Y-08400D02*
X23071Y-08686D01*
X23243Y-08343D02*
X22643Y-08543D01*
X23243Y-08743D01*
X23186Y-09286D02*
X23214Y-09257D01*
X23243Y-09171D01*
X23243Y-09114D01*
X23214Y-09029D01*
X23157Y-08971D01*
X23100Y-08943D01*
X22986Y-08914D01*
X22900Y-08914D01*
X22786Y-08943D01*
X22729Y-08971D01*
X22671Y-09029D01*
X22643Y-09114D01*
X22643Y-09171D01*
X22671Y-09257D01*
X22700Y-09286D01*
X23243Y-09543D02*
X22643Y-09543D01*
X23243Y-09886D02*
X22900Y-09629D01*
X22643Y-09886D02*
X22986Y-09543D01*
X22900Y-10229D02*
X22871Y-10171D01*
X22843Y-10143D01*
X22786Y-10114D01*
X22757Y-10114D01*
X22700Y-10143D01*
X22671Y-10171D01*
X22643Y-10229D01*
X22643Y-10343D01*
X22671Y-10400D01*
X22700Y-10429D01*
X22757Y-10457D01*
X22786Y-10457D01*
X22843Y-10429D01*
X22871Y-10400D01*
X22900Y-10343D01*
X22900Y-10229D01*
X22929Y-10171D01*
X22957Y-10143D01*
X23014Y-10114D01*
X23129Y-10114D01*
X23186Y-10143D01*
X23214Y-10171D01*
X23243Y-10229D01*
X23243Y-10343D01*
X23214Y-10400D01*
X23186Y-10429D01*
X23129Y-10457D01*
X23014Y-10457D01*
X22957Y-10429D01*
X22929Y-10400D01*
X22900Y-10343D01*
G54D13*
X24995Y-07164D02*
X24314Y-07164D01*
X24314Y-07327D01*
X24347Y-07368D01*
X24379Y-07388D01*
X24444Y-07408D01*
X24541Y-07408D01*
X24606Y-07388D01*
X24638Y-07368D01*
X24671Y-07327D01*
X24671Y-07164D01*
X24314Y-07551D02*
X24314Y-07816D01*
X24574Y-07673D01*
X24574Y-07735D01*
X24606Y-07775D01*
X24638Y-07796D01*
X24703Y-07816D01*
X24865Y-07816D01*
X24930Y-07796D01*
X24963Y-07775D01*
X24995Y-07735D01*
X24995Y-07612D01*
X24963Y-07572D01*
X24930Y-07551D01*
M02*
