M48
;DRILL file {PCBnew (2011-05-25)-stable} date Thu 19 Jun 2014 11:30:24 AM PDT
;FORMAT={-:-/ absolute / metric / decimal}
FMAT,2
METRIC,TZ
T1C0.635
T2C0.701
T3C0.813
%
G90
G05
M71
T1
X31.128Y-25.941
X37.704Y-30.163
X38.496Y-29.228
X39.240Y-35.682
X47.625Y-35.418
X58.456Y-24.699
X59.197Y-32.347
X60.841Y-32.202
X61.278Y-28.146
T2
X19.685Y-17.145
X19.685Y-37.465
X22.225Y-17.145
X22.225Y-37.465
X24.765Y-17.145
X24.765Y-37.465
X27.305Y-17.145
X27.305Y-37.465
X29.845Y-17.145
X29.845Y-37.465
X40.005Y-17.145
X40.005Y-37.465
X42.545Y-17.145
X42.545Y-37.465
X45.085Y-17.145
X45.085Y-37.465
X47.625Y-17.145
X47.625Y-37.465
X50.165Y-17.145
X50.165Y-37.465
T3
X15.240Y-19.050
X15.240Y-21.590
X15.240Y-24.130
X15.240Y-26.670
X15.240Y-29.210
X15.240Y-31.750
X15.240Y-34.290
X15.240Y-36.830
X22.860Y-26.670
X22.860Y-29.210
X27.940Y-24.130
X27.940Y-31.750
X30.480Y-24.130
X30.480Y-31.750
X33.020Y-24.130
X33.020Y-31.750
X35.560Y-24.130
X35.560Y-31.750
X38.100Y-24.130
X38.100Y-31.750
X40.640Y-24.130
X40.640Y-31.750
X43.180Y-24.130
X43.180Y-31.750
X45.720Y-24.130
X45.720Y-31.750
X55.245Y-19.050
X55.245Y-21.590
X55.245Y-24.130
X55.245Y-26.670
X55.245Y-29.210
X55.245Y-31.750
X55.245Y-34.290
X55.245Y-36.830
X62.865Y-19.050
X62.865Y-21.590
X62.865Y-24.130
X62.865Y-26.670
X62.865Y-29.210
X62.865Y-31.750
X62.865Y-34.290
X62.865Y-36.830
T0
M30
